<svg id="Warstwa_1" data-name="Warstwa 1" xmlns="http://www.w3.org/2000/svg" xmlns:xlink="http://www.w3.org/1999/xlink" viewBox="0 0 230.7 267.91"><defs><style>.cls-1,.cls-5,.cls-8{fill:none;}.cls-2{clip-path:url(#clip-path);}.cls-3{fill:#352a78;}.cls-4{fill:#d6121d;}.cls-5{stroke:#fff;stroke-linecap:round;stroke-linejoin:round;stroke-width:1.7px;}.cls-6{fill:#fff;}.cls-7{fill:#fcbe00;}.cls-8{stroke:#352a78;stroke-width:1.46px;}</style><clipPath id="clip-path"><rect class="cls-1" width="230.7" height="267.91"/></clipPath></defs><g class="cls-2"><rect class="cls-3" x="78.98" y="112.85" width="71.39" height="41.12" rx="7"/><rect class="cls-4" x="78.98" y="156.53" width="71.39" height="41.12" rx="7"/><rect class="cls-4" x="1.04" y="226.08" width="71.39" height="41.12" rx="7"/><rect class="cls-3" x="78.98" y="200.37" width="71.39" height="67.53" rx="7"/><path class="cls-4" d="M118.22,49.72c-1.92-3.35-5-3.35-7,0L79.92,104.21c-1.93,3.35-.36,6.07,3.51,6.07H146c3.87,0,5.44-2.72,3.51-6.07Z"/><rect class="cls-3" x="155.06" y="72.83" width="74.04" height="74.04" rx="7"/><path class="cls-5" d="M220.25,112.57V90.82a7,7,0,0,0-7-7H171a7,7,0,0,0-7.05,7v21.75a7,7,0,0,0,7.05,7h10.62c-.1,4.68-6.75,12.25-6.75,12.25s13-3.32,16.66-12.25h21.72A7,7,0,0,0,220.25,112.57Z"/><rect class="cls-3" y="72.83" width="74.04" height="74.04" rx="7"/><path class="cls-5" d="M8.85,112.57V90.82a7,7,0,0,1,7.05-7H58.15a7,7,0,0,1,7,7v21.75a7,7,0,0,1-7,7H47.53c.09,4.68,6.74,12.25,6.74,12.25s-13-3.32-16.66-12.25H15.9A7,7,0,0,1,8.85,112.57Z"/><rect class="cls-4" x="155.06" y="149.41" width="74.04" height="74.04" rx="7"/><path class="cls-5" d="M220.25,189.15V167.4a7,7,0,0,0-7-7H171a7,7,0,0,0-7.05,7v21.75a7,7,0,0,0,7.05,7h10.62c-.1,4.68-6.75,12.25-6.75,12.25s13-3.32,16.66-12.25h21.72A7,7,0,0,0,220.25,189.15Z"/><rect class="cls-4" y="149.41" width="74.04" height="74.04" rx="7"/><path class="cls-5" d="M8.85,189.15V167.4a7,7,0,0,1,7.05-7H58.15a7,7,0,0,1,7,7v21.75a7,7,0,0,1-7,7H47.53c.09,4.68,6.74,12.25,6.74,12.25s-13-3.32-16.66-12.25H15.9A7,7,0,0,1,8.85,189.15Z"/><path class="cls-6" d="M114.68,176.3a21.06,21.06,0,1,0-21.05-21.05,21.05,21.05,0,0,0,21.05,21.05"/><path class="cls-3" d="M114.68,157.35a2.11,2.11,0,1,0-2.1-2.1,2.11,2.11,0,0,0,2.1,2.1"/><path class="cls-3" d="M114.68,137a.65.65,0,0,0-.64.65v17.5a.64.64,0,0,0,1.28,0v-17.5a.65.65,0,0,0-.64-.65"/><path class="cls-3" d="M124.59,155.25a.64.64,0,0,0-.64-.65h-8.63a.65.65,0,0,0,0,1.29H124a.64.64,0,0,0,.64-.64"/><path class="cls-3" d="M114.68,26.47a.64.64,0,0,0-.64.64V44.62a.64.64,0,0,0,1.28,0V27.11a.64.64,0,0,0-.64-.64"/><path class="cls-7" d="M161.59,57.5a28.75,28.75,0,1,0-28.75-28.75A28.75,28.75,0,0,0,161.59,57.5"/><path class="cls-6" d="M230,265.08c-.68-19.14-17.26-34.45-37.61-34.45s-36.69,15.1-37.59,34.05c0,.54.14,1.79,1.41,1.79h16.39a1.44,1.44,0,0,0,1.57-1.21c.57-9.07,8.51-16.26,18.22-16.26s17.6,7.14,18.22,16.17a1.3,1.3,0,0,0,1.27,1.3h16.81a1.37,1.37,0,0,0,1.31-1.39"/><path class="cls-8" d="M230,265.08c-.68-19.14-17.26-34.45-37.61-34.45s-36.69,15.1-37.59,34.05c0,.54.14,1.79,1.41,1.79h16.39a1.44,1.44,0,0,0,1.57-1.21c.57-9.07,8.51-16.26,18.22-16.26s17.6,7.14,18.22,16.17a1.3,1.3,0,0,0,1.27,1.3h16.81A1.37,1.37,0,0,0,230,265.08Z"/></g></svg>