<svg id="Warstwa_1" data-name="Warstwa 1" xmlns="http://www.w3.org/2000/svg" xmlns:xlink="http://www.w3.org/1999/xlink" viewBox="0 0 327.56 261.63"><defs><style>.cls-1,.cls-10,.cls-16,.cls-4,.cls-5,.cls-8,.cls-9{fill:none;}.cls-2{clip-path:url(#clip-path);}.cls-3{fill:#fcbe00;}.cls-4,.cls-5{stroke:#fcbe00;stroke-miterlimit:22.93;}.cls-4{stroke-width:0.26px;}.cls-5{stroke-width:0.61px;}.cls-6{fill:#d6121d;}.cls-7{fill:#fff;}.cls-10,.cls-8,.cls-9{stroke:#007bae;stroke-linejoin:round;stroke-width:2.24px;}.cls-10,.cls-16,.cls-8,.cls-9{stroke-linecap:round;}.cls-8{stroke-dasharray:0 4.48;}.cls-9{stroke-dasharray:0 4.8;}.cls-11{fill:#aeb924;}.cls-12{fill:#86ac29;}.cls-13{fill:#ec6408;}.cls-14{fill:#11447f;}.cls-15{fill:#007bae;}.cls-16{stroke:#fff;stroke-width:2.5px;}.cls-17{opacity:0.44;}.cls-18{clip-path:url(#clip-path-3);}.cls-19{clip-path:url(#clip-path-4);}.cls-20{clip-path:url(#clip-path-5);}.cls-21{clip-path:url(#clip-path-6);}.cls-22{clip-path:url(#clip-path-7);}</style><clipPath id="clip-path"><rect class="cls-1" width="327.56" height="261.63"/></clipPath><clipPath id="clip-path-3"><rect class="cls-1" x="106.14" y="180.78" width="18.41" height="26.57"/></clipPath><clipPath id="clip-path-4"><rect class="cls-1" x="93.49" y="175.03" width="37.64" height="39.1"/></clipPath><clipPath id="clip-path-5"><rect class="cls-1" x="98.78" y="169.65" width="39.05" height="37.87"/></clipPath><clipPath id="clip-path-6"><rect class="cls-1" x="86.86" y="171.62" width="54.41" height="54.41"/></clipPath><clipPath id="clip-path-7"><rect class="cls-1" x="86.86" y="163.14" width="54.41" height="54.41"/></clipPath></defs><g class="cls-2"><g class="cls-2"><path class="cls-3" d="M268.8,34.52v0c9.27,4.59,10.5-16.47-3.27-7.93,2.69-2.48,3.95-4.55,4.46-6.33a9,9,0,0,0-3.92-9.9c-2.7-1.65-6.16-1.71-8.55.77-1.74,1.81-2.75,5.22.68,13.2a1.65,1.65,0,0,0-1.75.44,1.42,1.42,0,0,0,.07,2c-9-1.92-12.45-.44-14.08,1.46-2.23,2.6-1.61,5.8.56,8a10.42,10.42,0,0,0,11.05,2,15.23,15.23,0,0,0,6-5.14c-5,7,2.32,13.18,7.38,8.29,1.39-1.34,2.61-4.47,1-6.6a1.37,1.37,0,0,0,.43-.33Z"/><path class="cls-4" d="M268.84,34.55h0c9.31,4.6,10.54-16.51-3.28-8,2.69-2.49,4-4.57,4.48-6.35a9.06,9.06,0,0,0-3.94-9.93c-2.71-1.65-6.18-1.71-8.58.78-1.75,1.81-2.76,5.23.69,13.23a1.68,1.68,0,0,0-1.77.44,1.42,1.42,0,0,0,.08,2c-9-1.93-12.5-.44-14.13,1.46-2.24,2.62-1.62,5.82.56,8.06a10.45,10.45,0,0,0,11.09,2.05,15.21,15.21,0,0,0,6-5.15c-5,7.06,2.33,13.22,7.41,8.31,1.39-1.34,2.61-4.48.95-6.61a1.76,1.76,0,0,0,.43-.33Z"/><path class="cls-5" d="M256.73,25.06c-6.76-5.49-9.11-8.48-21.13-7.44m21.45,7.5c-5.5-5.7-6.34-13.51-7.14-20.94"/><path class="cls-6" d="M247.88,2.66a2.61,2.61,0,0,0,3,2.06,2.59,2.59,0,0,0,2.53-2.64,2.61,2.61,0,0,0-3-2.06,2.61,2.61,0,0,0-2.53,2.64"/><path class="cls-6" d="M231.22,18.7a2.82,2.82,0,0,0,5.54-.58,2.82,2.82,0,0,0-5.54.58"/><path class="cls-7" d="M245.67,32.66a2.82,2.82,0,0,0,5.54-.57,2.82,2.82,0,0,0-5.54.57"/><path class="cls-4" d="M245.61,32.67a2.89,2.89,0,0,0,5.67-.59A2.68,2.68,0,0,0,248.19,30,2.65,2.65,0,0,0,245.61,32.67Z"/><path class="cls-7" d="M260,16a2.83,2.83,0,0,0,5.55-.58A2.83,2.83,0,0,0,260,16"/><path class="cls-4" d="M259.92,16a2.89,2.89,0,0,0,5.67-.59,2.89,2.89,0,0,0-5.67.59Z"/><path class="cls-7" d="M267.42,29.3a2.14,2.14,0,0,0,4.21-.44,2.15,2.15,0,0,0-4.21.44"/><path class="cls-4" d="M267.36,29.31a2.21,2.21,0,0,0,4.33-.45,2.2,2.2,0,0,0-4.33.45Z"/><path class="cls-7" d="M261.53,38.3a2.14,2.14,0,1,0,1.91-2,2,2,0,0,0-1.91,2"/><path class="cls-4" d="M261.46,38.3a2.21,2.21,0,1,0,2-2.06A2,2,0,0,0,261.46,38.3Z"/><path class="cls-8" d="M276.88,39.62c13,4,50.66,17.88,44.8,44.62"/><path class="cls-9" d="M319.38,90.87a23,23,0,0,1-7.81,8.94"/><path class="cls-10" d="M309.55,101.1h0m11.57-14.69h0m-48.55-48h0"/><path class="cls-11" d="M131.75,34.28a26.54,26.54,0,0,0,53.07,0Z"/><path class="cls-12" d="M185.05,32.09c-.48-13.22-12.23-23.81-26.66-23.81s-26,10.44-26.64,23.53c0,.37.09,1.24,1,1.24h11.61a1,1,0,0,0,1.12-.84c.4-6.27,6-11.24,12.91-11.24s12.48,4.94,12.92,11.18a.91.91,0,0,0,.9.9h11.91a1,1,0,0,0,.93-1"/><rect class="cls-13" x="36.28" y="64.28" width="21.26" height="39.69" rx="4.6"/><rect class="cls-13" x="91.7" y="64.28" width="21.26" height="39.69" rx="4.6"/><rect class="cls-13" x="147.77" y="64.28" width="21.26" height="39.69" rx="4.6"/><rect class="cls-11" x="20.91" y="8.28" width="52" height="52" rx="7"/><path class="cls-11" d="M27.91,247.63a7,7,0,0,0,0,14h38a7,7,0,0,0,0-14Z"/><path class="cls-12" d="M89.27,247.63a7,7,0,1,0,0,14h38a7,7,0,1,0,0-14Z"/><path class="cls-11" d="M150.62,247.63a7,7,0,0,0,0,14h38a7,7,0,0,0,0-14Z"/><path class="cls-12" d="M212,247.63a7,7,0,0,0,0,14h38a7,7,0,1,0,0-14Z"/><path class="cls-11" d="M273.33,247.63a7,7,0,0,0,0,14h38a7,7,0,1,0,0-14Z"/><rect class="cls-12" x="76.33" y="8.28" width="52" height="52" rx="7"/><path class="cls-12" d="M46.91,60.28a26,26,0,1,0-26-26,26,26,0,0,0,26,26"/><path class="cls-11" d="M102.33,60.28a26,26,0,1,0-26-26,26,26,0,0,0,26,26"/><path class="cls-3" d="M226.46,103a28.75,28.75,0,1,0-28.75-28.75A28.75,28.75,0,0,0,226.46,103"/><path class="cls-6" d="M154,230.11V203a7,7,0,0,0-7-7h-7.72a21,21,0,0,1-41.95,0H89.61a7,7,0,0,0-7,7v27.11a7,7,0,0,0,7,7H147a7,7,0,0,0,7-7"/><path class="cls-14" d="M6.72,146.21c-3-.45-5.79.92-6.11,3.06L0,153.15c-.32,2.15,1.89,4.26,5,4.71L224.67,190.7c3.05.45,5.79-.92,6.11-3.06l.58-3.88c.32-2.15-1.9-4.26-5-4.71Z"/><path class="cls-3" d="M118.3,212.33a17.75,17.75,0,1,0-17.75-17.75,17.74,17.74,0,0,0,17.75,17.75"/><path class="cls-6" d="M33.71,134.42a7,7,0,1,1-7,7,7,7,0,0,1,7-7"/><path class="cls-6" d="M199.13,159.54a7,7,0,1,1-7,7,7,7,0,0,1,7-7"/><path class="cls-14" d="M268.37,149.32H229.82c-2.09,0-3.8,0-5.19,0a1.64,1.64,0,0,1-1.18-.95,1.41,1.41,0,0,1-.1-.43,1.89,1.89,0,0,1,0-.75,1.59,1.59,0,0,1,.5-.77l.1-.08c.27-.2.51-.39.68-.54l.31-.24.22-.17,7.45-5.93,32.71-26,.71-.57.72-.6a1.66,1.66,0,0,1,1-.48,1.64,1.64,0,0,1,1.71,1.32c0,.41,0,.85,0,1.26v33.9a1.6,1.6,0,0,1-1.2,1.06"/><path class="cls-15" d="M274.17,149.32h45.71c2.47,0,4.5,0,6.15,0a1.93,1.93,0,0,0,1.39-1.13,1.52,1.52,0,0,0,.12-.5,2.22,2.22,0,0,0-.05-.89,1.91,1.91,0,0,0-.58-.91l-.13-.1a9.67,9.67,0,0,1-.8-.64l-.37-.28-.26-.21c-3.17-2.51-7.59-6-8.83-7l-38.77-30.81-.85-.67-.85-.7a1.92,1.92,0,0,0-3.27,1c0,.48,0,1,0,1.49v40.18a1.91,1.91,0,0,0,1.42,1.26"/><path class="cls-6" d="M291.33,113.18V107.7a1.61,1.61,0,0,1,1.13-1h13a1.62,1.62,0,0,1,1.22,1.23l.39,17.7Z"/><rect class="cls-3" x="239.75" y="152.32" width="71.39" height="41.12" rx="7"/><rect class="cls-13" x="239.75" y="196" width="71.39" height="41.12" rx="7"/><path class="cls-7" d="M275.45,215.51a21.06,21.06,0,1,0-21.06-21.06,21.06,21.06,0,0,0,21.06,21.06"/><path class="cls-7" d="M275.45,215.51a21.06,21.06,0,1,0-21.06-21.06,21.06,21.06,0,0,0,21.06,21.06"/><path class="cls-12" d="M275.45,212.56a18.11,18.11,0,1,0-18.11-18.11,18.1,18.1,0,0,0,18.11,18.11"/><path class="cls-16" d="M282,189.43a8.87,8.87,0,0,0-13.26,0"/><path class="cls-7" d="M283.85,200.45a1.63,1.63,0,1,0,1.63,1.62,1.63,1.63,0,0,0-1.63-1.62"/><path class="cls-7" d="M267,200.45a1.63,1.63,0,1,0,1.63,1.62,1.63,1.63,0,0,0-1.63-1.62"/><g class="cls-17"><g class="cls-18"><path class="cls-3" d="M121.45,195.14a3.19,3.19,0,1,1-2.59-3.73,3.23,3.23,0,0,1,2.59,3.73"/></g></g><g class="cls-17"><g class="cls-19"><path class="cls-6" d="M106.49,193.64v.94h0v.94a1.57,1.57,0,0,0,1.76,1.6l4.56-.51a2.05,2.05,0,0,0,1.77-2v0h0v0a2.05,2.05,0,0,0-1.77-2l-4.56-.51a1.57,1.57,0,0,0-1.76,1.6"/><path class="cls-6" d="M130.12,195.53v-.94h0v-.94a1.57,1.57,0,0,0-1.76-1.6l-4.56.51a2.05,2.05,0,0,0-1.77,2v0h0v0a2.05,2.05,0,0,0,1.77,2l4.56.51a1.57,1.57,0,0,0,1.76-1.6"/></g></g><g class="cls-17"><g class="cls-20"><path class="cls-6" d="M119.24,182.65h-1.87a1.56,1.56,0,0,0-1.58,1.78l.5,4.6a2,2,0,0,0,2,1.79h.09a2,2,0,0,0,2-1.79l.5-4.6a1.56,1.56,0,0,0-1.58-1.78"/><path class="cls-6" d="M117.37,206.52h1.87a1.56,1.56,0,0,0,1.58-1.78l-.5-4.6a2,2,0,0,0-2-1.79h-.09a2,2,0,0,0-2,1.79l-.5,4.6a1.56,1.56,0,0,0,1.58,1.78"/></g></g><g class="cls-17"><g class="cls-21"><path class="cls-6" d="M109.29,202.36l.66.66h0l.66.67a1.55,1.55,0,0,0,2.37-.13l2.86-3.61a2.06,2.06,0,0,0-.14-2.67l0,0,0,0a2,2,0,0,0-2.65-.15L109.42,200a1.58,1.58,0,0,0-.13,2.4"/><path class="cls-6" d="M127.32,186.81l-.66-.67h0l-.66-.66a1.55,1.55,0,0,0-2.37.13l-2.86,3.61a2.06,2.06,0,0,0,.14,2.67l0,0,0,0a2,2,0,0,0,2.65.15l3.57-2.9a1.58,1.58,0,0,0,.13-2.39"/></g></g><g class="cls-17"><g class="cls-22"><path class="cls-6" d="M110.61,185.48l-.66.66h0l-.66.67a1.57,1.57,0,0,0,.13,2.39l3.57,2.9a2,2,0,0,0,2.65-.15l0,0h0l0,0a2.06,2.06,0,0,0,.14-2.67L113,185.61a1.55,1.55,0,0,0-2.37-.13"/><path class="cls-6" d="M126,203.69l.66-.67h0l.66-.66a1.58,1.58,0,0,0-.13-2.4l-3.57-2.89a2,2,0,0,0-2.65.15l0,0h0l0,0a2.06,2.06,0,0,0-.14,2.67l2.86,3.61a1.55,1.55,0,0,0,2.37.13"/></g></g><path class="cls-11" d="M160.09,137c-.49-13.22-12.23-23.81-26.66-23.81s-26,10.44-26.64,23.53c0,.37.09,1.24,1,1.24H119.4a1,1,0,0,0,1.12-.84c.4-6.27,6-11.23,12.91-11.23s12.48,4.93,12.92,11.17a.9.9,0,0,0,.9.9h11.91a1,1,0,0,0,.93-1"/><path class="cls-12" d="M216.09,137c-.49-13.22-12.23-23.81-26.66-23.81s-26,10.44-26.64,23.53c0,.37.09,1.24,1,1.24H175.4a1,1,0,0,0,1.12-.84c.4-6.27,6-11.23,12.91-11.23s12.48,4.93,12.92,11.17a.9.9,0,0,0,.9.9h11.91a1,1,0,0,0,.93-1"/></g></g></svg>