<svg xmlns="http://www.w3.org/2000/svg" viewBox="0 0 1200 1200"><defs><style>.cls-1{fill:#ffd400;}.cls-2{fill:#ff0;}.cls-3{fill:#f6ffd5;}.cls-4{fill:#fff;}.cls-5{fill:#ffff91;}</style></defs><title>job683-</title><g id="Graphic_Elements" data-name="Graphic Elements"><g id="g5250"><path id="path5252" d="M504,93.6c-.72,0-1.44,0-2.16.06-30,3.16-47,32.45-60.43,56.24C408,212.2,390.14,280.83,371.63,348.84c-48.7,17.13-83.57,63.3-83.57,117.59a125.89,125.89,0,0,0,.85,14.74c-20.47,17.17-43,32.15-65.54,45.41-39.47,23.64-83.46,42.62-116.23,75.58-13.29,15.55-14.69,40-1,55.73,26.52,38.08,68.55,60.86,106.7,85.72,44.78,27.16,91.56,50.91,138.91,73.25C364.43,917,374,1019.1,407.68,1114.79c6.21,15.36,16.71,35.11,35.67,35.21,22.53-1.23,39.88-18.15,58.22-29.48,78-56.51,146.83-124.64,216.52-190.89,103.86,31.71,208.7,65.25,317.61,72.79,21.14.77,47.42-.56,60.66-19.44,13.42-23.38,4.67-51.77-.11-76.32-19.57-78.83-56.28-152.29-93.89-223.83-11.28-20.23-23.17-40.11-36.23-59.24,40.36-46.39,65.11-103.79,91.79-158.75,19-41.88,37.49-85.24,42.8-131.25.27-14.38-11.51-27.29-26.08-27.27-46.2-8.26-93.22.58-139.47,4.2-32.6,3.77-65.15,8.44-97.62,13.55a173.29,173.29,0,0,0-128.19-72.74c-1-1.05-2.1-2.06-3.12-3.12-59.54-53.91-119-109.44-187.77-151.15A35.36,35.36,0,0,0,504,93.6Z"/><path id="path5254" class="cls-1" d="M503.22,104.49c-53.65.1-103.37,177.45-119.4,240.72a126.05,126.05,0,0,1,139.52,61c8.48-86.41,81.17-154.09,170-155.29-49.66-45.27-130.65-116.4-177.06-142.7A26.21,26.21,0,0,0,503.22,104.49ZM1034.56,314c-56.23.46-142.49,12.54-190.49,20A170.62,170.62,0,0,1,869,423.06c0,95.13-77.57,172.29-173.26,172.29A173.32,173.32,0,0,1,536.5,491C525,548.09,474.27,591.1,413.47,591.1a125.22,125.22,0,0,1-122.41-97.74c-80,64.26-182.41,94-184,136.29C104.75,692.8,362,809.72,362,809.72s32.71,327.4,79.48,329.73S715.08,917.32,715.08,917.32,1054.21,1029.55,1087,978.1,995.77,676.41,951.33,622.62C993.43,592.22,1108,351.39,1087,323.33,1081.69,316.31,1061.64,313.81,1034.56,314Z"/><path id="path5256" class="cls-2" d="M485.92,150.24C461.64,152,428.37,277.11,412.79,341.7h.68a125.53,125.53,0,0,1,109.87,64.46c5.93-60.41,43.26-111.63,95.53-137.43C585.56,230.47,511.09,148.44,485.92,150.24Zm540.82,188.45c-39.44-.07-146.56,18.77-146.56,18.77C911.6,433.53,888.4,470,868.56,517.91c67.8-34.73,181.93-167,172-176.95C1039,339.41,1034,338.71,1026.74,338.69ZM297.3,513.37c-50,25-176.21,91-176.21,121,0,37.42,247.93,159,247.93,159s51.42,301.64,70.13,306.32,229.2-217.5,250.25-233.87S942,926.68,988.75,917.32,904.52,697.49,883.47,664.75s-67.79-77.21-126.26-51.48-124,0-163.74-18.71-58.42-30.37-119.23,4.7c-50.52,29.16-100.93-7.84-116.56-21.2A125.36,125.36,0,0,1,297.3,513.37Zm518.36,207.9c1.66,51.27-56.23,135.6-186.86,119.06C628.8,840.33,757.78,812.22,815.66,721.27Z"/><path id="path5258" class="cls-3" d="M530.41,469.22A116.92,116.92,0,1,1,413.49,352.3,116.92,116.92,0,0,1,530.41,469.22Z"/><path id="path5260" class="cls-4" d="M485.47,452.63a88.57,88.57,0,1,1-88.57-88.57A88.57,88.57,0,0,1,485.47,452.63Z"/><g id="g5262"><path id="path5264" d="M411,430.68a28.86,28.86,0,1,1-28.86-28.86A28.86,28.86,0,0,1,411,430.68Z"/><path id="path5266" class="cls-4" d="M384.58,419.07a13.38,13.38,0,1,1-13.38-13.38A13.38,13.38,0,0,1,384.58,419.07Z"/></g><path id="path5268" class="cls-3" d="M534.28,427a161.5,161.5,0,1,0,161.49-161.5A161.49,161.49,0,0,0,534.28,427Z"/><path id="path5270" class="cls-4" d="M549.3,405c0,66.49,54.74,120.38,122.27,120.38S793.84,471.51,793.84,405,739.1,284.64,671.57,284.64,549.3,338.54,549.3,405Z"/><g id="g5272"><path id="path5274" d="M664.71,383a28.86,28.86,0,1,1-28.86-28.86A28.86,28.86,0,0,1,664.71,383Z"/><path id="path5276" class="cls-4" d="M638.32,371.38A13.38,13.38,0,1,1,624.94,358,13.38,13.38,0,0,1,638.32,371.38Z"/></g><path id="path5278" d="M231,309.27s-4.67-67.82,77.18-74.83C249.72,161.94,156.18,248.47,231,309.27Z"/><path id="path5280" d="M761.88,101.14c14-2.34,65.48,14,81.85,46.77C883.49,24,804,28.64,761.88,101.14Z"/><path id="path5282" d="M772.24,644.79a4.53,4.53,0,0,0,.23,8.05,220.16,220.16,0,0,1,26.45,16.63c4.27,3.12,8.7,6.64,13,10.43-80.33,109.42-216.26,142-216.26,142a4.54,4.54,0,0,0,1.86,8.88l.22,0s138.18-32.57,221-144.56c7.41,7.35,14,15.49,18,24a4.54,4.54,0,1,0,8.56-3,4.44,4.44,0,0,0-.41-.85c-8.65-18.15-25.76-33.27-40.61-44.11a223.39,223.39,0,0,0-27.64-17.3,4.46,4.46,0,0,0-2.2-.58,4.63,4.63,0,0,0-2.15.57Z"/><path id="path5284" class="cls-5" d="M491.54,173.94c-16.54,0-52.9,148.82-52.9,148.82,13.23-1.65,31.41,14.86,31.41,14.86S508.07,173.94,491.54,173.94ZM281.54,541C250.12,551,141,613.79,139.35,632S370.83,772.52,370.83,772.52,179,646.85,177.33,633.62,281.54,541,281.54,541Zm120.7,261.25s26.45,239.83,41.33,267.94C460.11,1014,425.39,823.79,402.24,802.29Z"/></g></g></svg>