<svg id="Warstwa_1" data-name="Warstwa 1" xmlns="http://www.w3.org/2000/svg" xmlns:xlink="http://www.w3.org/1999/xlink" viewBox="0 0 332.9 192.05"><defs><style>.cls-1,.cls-10,.cls-11,.cls-12,.cls-13,.cls-14,.cls-15,.cls-16,.cls-17{fill:none;}.cls-2{clip-path:url(#clip-path);}.cls-3{fill:#ec6408;}.cls-4{fill:#fcbe00;}.cls-5{fill:#007bae;}.cls-6{fill:#d6121d;}.cls-7{fill:#86ac29;}.cls-8{fill:#fff;}.cls-9{fill:#11447f;}.cls-10,.cls-11,.cls-12,.cls-13,.cls-14,.cls-15{stroke:#007bae;stroke-linecap:round;stroke-linejoin:round;stroke-width:2.24px;}.cls-10{stroke-dasharray:0 4.6;}.cls-11{stroke-dasharray:0 4.54;}.cls-12{stroke-dasharray:0 4.51;}.cls-13{stroke-dasharray:0 4.52;}.cls-14{stroke-dasharray:0 4.4;}.cls-16,.cls-17{stroke:#fcbe00;stroke-miterlimit:22.93;}.cls-16{stroke-width:0.26px;}.cls-17{stroke-width:0.61px;}</style><clipPath id="clip-path"><rect class="cls-1" width="332.9" height="192.05"/></clipPath></defs><g class="cls-2"><path class="cls-3" d="M258.84,32.46l27.91,27.91c1.07,1.07,2.77,2.73,3.8,3.71a1.77,1.77,0,0,0,1.67,0,2.74,2.74,0,0,0,.44-.29,2.42,2.42,0,0,0,.61-.68,2.05,2.05,0,0,0,.31-1V62c0-.36,0-.7,0-.95l0-.43c0-.06,0-.2,0-.31-.11-3.75-.25-9-.29-10.49l-1.33-46,0-1c0-.22,0-.68,0-1a1.47,1.47,0,0,0-.34-1.18,1.64,1.64,0,0,0-2.38-.1L288,1.53,261.72,27.84c-1.56,1.56-2.9,3-3,3.12a1.73,1.73,0,0,0,.11,1.5"/><path class="cls-3" d="M63.82,136.13a7,7,0,0,0-14,0v46a7,7,0,0,0,14,0Z"/><path class="cls-4" d="M205.37,136.59a7,7,0,0,0-14,0v46a7,7,0,1,0,14,0Z"/><path class="cls-4" d="M329.4,34.13a3.5,3.5,0,0,0,0-7h-25a3.5,3.5,0,1,0,0,7Z"/><path class="cls-4" d="M307.83,20.08a3.5,3.5,0,1,1-3.5-6.06L326,1.52a3.5,3.5,0,0,1,3.5,6.06Z"/><path class="cls-4" d="M307.83,41.15a3.5,3.5,0,1,0-3.5,6.06L326,59.71a3.5,3.5,0,0,0,3.5-6.06Z"/><path class="cls-5" d="M126.37,139.05a7,7,0,0,0-14,0v46a7,7,0,0,0,14,0Z"/><path class="cls-5" d="M166.37,139.05a7,7,0,0,0-14,0v46a7,7,0,0,0,14,0Z"/><path class="cls-4" d="M87.07,136.59a7,7,0,0,0-14,0v46a7,7,0,0,0,14,0Z"/><path class="cls-4" d="M32,62.73a4.79,4.79,0,0,0-8.53,4.34l14.27,28a4.79,4.79,0,0,0,8.53-4.34Z"/><path class="cls-3" d="M225.07,136.59a7,7,0,1,0-14,0v46a7,7,0,0,0,14,0Z"/><path class="cls-4" d="M193.15,50.63a7,7,0,0,0,0-14h-10a7,7,0,0,0,0,14Z"/><path class="cls-6" d="M264.37,136.59a7,7,0,0,0-14,0v46a7,7,0,1,0,14,0Z"/><path class="cls-4" d="M284.37,136.59a7,7,0,0,0-14,0v46a7,7,0,1,0,14,0Z"/><path class="cls-6" d="M303.37,136.59a7,7,0,0,0-14,0v46a7,7,0,1,0,14,0Z"/><path class="cls-7" d="M146.07,139.05a7,7,0,0,0-14,0v46a7,7,0,0,0,14,0Z"/><path class="cls-4" d="M260.31,52.13a28.74,28.74,0,1,0-57.48,0Z"/><path class="cls-3" d="M260.17,51.94a28.74,28.74,0,1,1-57.48,0Z"/><path class="cls-8" d="M220.25,63.22a15.81,15.81,0,1,0,0-22.36,15.82,15.82,0,0,0,0,22.36"/><path class="cls-9" d="M10.93,56.88A15.81,15.81,0,1,0,.78,37,15.81,15.81,0,0,0,10.93,56.88"/><path class="cls-10" d="M51,98.58c13.06-2.35,50.37-6.51,56.1,21.16"/><path class="cls-11" d="M107.91,126.53c.59,28-38.59-7.58-9.84-43.28"/><path class="cls-12" d="M102.55,78.16c30.72-32.87,51.3-15.56,84.14,7.55"/><path class="cls-13" d="M192.26,89.57c32.29,21.86,57.77,29.11,82.2,18.85"/><path class="cls-14" d="M280.5,105.6c17.77-8.93,26.62-18.47,29.72-22.33"/><path class="cls-15" d="M311.53,81.51h0m-35,26h0m-88-20.5h0m-89-5.5h0m8,40.5h0m-61-22.5h0"/><path class="cls-4" d="M90.21,56.35v0C99.5,61,100.72,39.9,87,48.44c2.68-2.49,3.94-4.56,4.46-6.33a9,9,0,0,0-3.93-9.9c-2.7-1.65-6.16-1.71-8.55.77-1.74,1.81-2.74,5.22.69,13.2a1.65,1.65,0,0,0-1.76.43,1.43,1.43,0,0,0,.07,2c-9-1.92-12.45-.44-14.07,1.46-2.24,2.6-1.62,5.79.55,8a10.44,10.44,0,0,0,11.06,2,15.15,15.15,0,0,0,6-5.14c-5,7,2.32,13.18,7.39,8.29,1.38-1.34,2.6-4.47,1-6.6a1.46,1.46,0,0,0,.42-.33Z"/><path class="cls-16" d="M90.25,56.37v0c9.31,4.6,10.54-16.51-3.28-8,2.7-2.48,4-4.56,4.48-6.34a9,9,0,0,0-3.94-9.93c-2.71-1.65-6.18-1.71-8.58.78-1.75,1.81-2.75,5.23.69,13.23a1.66,1.66,0,0,0-1.76.44,1.41,1.41,0,0,0,.07,2c-9-1.93-12.49-.45-14.13,1.46-2.24,2.62-1.62,5.82.56,8.06a10.45,10.45,0,0,0,11.09,2,15.23,15.23,0,0,0,6-5.15c-5,7.06,2.33,13.21,7.41,8.31,1.39-1.34,2.61-4.48,1-6.61a1.7,1.7,0,0,0,.42-.34Z"/><path class="cls-17" d="M78.15,46.89C71.39,41.4,69,38.41,57,39.45M78.47,47C73,41.25,72.12,33.44,71.33,26"/><path class="cls-6" d="M69.3,24.49a2.82,2.82,0,0,0,5.54-.58,2.82,2.82,0,0,0-5.54.58"/><path class="cls-6" d="M52.63,40.53A2.82,2.82,0,0,0,58.17,40a2.82,2.82,0,0,0-5.54.58"/><path class="cls-8" d="M67.08,54.49a2.83,2.83,0,1,0,2.53-2.64,2.62,2.62,0,0,0-2.53,2.64"/><path class="cls-16" d="M67,54.5a2.89,2.89,0,1,0,2.58-2.7A2.67,2.67,0,0,0,67,54.5Z"/><path class="cls-8" d="M81.4,37.78a2.82,2.82,0,0,0,5.54-.57,2.82,2.82,0,0,0-5.54.57"/><path class="cls-16" d="M81.33,37.79a2.68,2.68,0,0,0,3.09,2.11A2.65,2.65,0,0,0,87,37.2a2.89,2.89,0,0,0-5.67.59Z"/><path class="cls-8" d="M88.83,51.13a2,2,0,0,0,2.3,1.57,1.82,1.82,0,1,0-.38-3.58,2,2,0,0,0-1.92,2"/><path class="cls-16" d="M88.77,51.14a2,2,0,0,0,2.36,1.61,1.87,1.87,0,1,0-2.36-1.61Z"/><path class="cls-8" d="M82.94,60.12a2.14,2.14,0,1,0,1.91-2,2,2,0,0,0-1.91,2"/><path class="cls-16" d="M82.88,60.13a2.21,2.21,0,1,0,2-2.06A2,2,0,0,0,82.88,60.13Z"/></g></svg>