<svg id="Warstwa_1" data-name="Warstwa 1" xmlns="http://www.w3.org/2000/svg" xmlns:xlink="http://www.w3.org/1999/xlink" viewBox="0 0 309.62 313.36"><defs><style>.cls-1,.cls-12,.cls-13,.cls-14,.cls-15,.cls-16,.cls-17,.cls-18,.cls-19,.cls-20,.cls-21,.cls-7{fill:none;}.cls-2{clip-path:url(#clip-path);}.cls-3{fill:#d6121d;}.cls-4{fill:#007bae;}.cls-5{fill:#fcbe00;}.cls-6{fill:#aeb924;}.cls-7{stroke:#fff;stroke-width:2.5px;}.cls-12,.cls-13,.cls-14,.cls-15,.cls-16,.cls-17,.cls-18,.cls-19,.cls-7{stroke-linecap:round;}.cls-8{fill:#fff;}.cls-9{opacity:0.44;}.cls-10{clip-path:url(#clip-path-3);}.cls-11{fill:#ec6408;}.cls-12,.cls-13,.cls-14,.cls-15,.cls-16,.cls-17,.cls-18,.cls-19{stroke:#007bae;stroke-linejoin:round;stroke-width:2.24px;}.cls-12{stroke-dasharray:0 4.59;}.cls-13{stroke-dasharray:0 4.51;}.cls-14{stroke-dasharray:0 4.37;}.cls-15{stroke-dasharray:0 4.55;}.cls-16{stroke-dasharray:0 4.48;}.cls-17{stroke-dasharray:0 4.58;}.cls-18{stroke-dasharray:0 4.36;}.cls-20,.cls-21{stroke:#fcbe00;stroke-miterlimit:22.93;}.cls-20{stroke-width:0.26px;}.cls-21{stroke-width:0.61px;}</style><clipPath id="clip-path"><rect class="cls-1" width="309.62" height="313.36"/></clipPath><clipPath id="clip-path-3"><rect class="cls-1" x="189.45" y="212.63" width="51.5" height="81.81"/></clipPath></defs><g class="cls-2"><g class="cls-2"><rect class="cls-3" y="145.86" width="52" height="52" rx="7"/><rect class="cls-4" x="231" y="145.86" width="52" height="52" rx="7"/><path class="cls-5" d="M10.21,170.61v1.25h0v1.25a2.09,2.09,0,0,0,2.36,2.14l6.06-.68A2.71,2.71,0,0,0,21,171.92v-.06h0v-.06a2.71,2.71,0,0,0-2.36-2.65l-6.06-.68a2.09,2.09,0,0,0-2.36,2.14"/><path class="cls-5" d="M41.71,173.11v-1.25h0v-1.25a2.09,2.09,0,0,0-2.36-2.14l-6.07.68a2.71,2.71,0,0,0-2.35,2.65v.06h0v.06a2.71,2.71,0,0,0,2.35,2.65l6.07.68a2.09,2.09,0,0,0,2.36-2.14"/><path class="cls-5" d="M27.2,156H24.72a2.08,2.08,0,0,0-2.11,2.38l.66,6.12a2.72,2.72,0,0,0,2.63,2.38H26a2.71,2.71,0,0,0,2.63-2.38l.67-6.12A2.09,2.09,0,0,0,27.2,156"/><path class="cls-5" d="M24.72,187.76H27.2a2.09,2.09,0,0,0,2.11-2.38l-.67-6.12A2.71,2.71,0,0,0,26,176.88H25.9a2.72,2.72,0,0,0-2.63,2.38l-.66,6.12a2.08,2.08,0,0,0,2.11,2.38"/><path class="cls-5" d="M14,182.22l.87.89h0l.88.88a2.06,2.06,0,0,0,3.16-.17L22.68,179a2.76,2.76,0,0,0-.19-3.56l0,0h0l0,0a2.69,2.69,0,0,0-3.53-.2L14.12,179a2.11,2.11,0,0,0-.17,3.19"/><path class="cls-5" d="M38,161.5l-.88-.89h0l-.87-.88a2.06,2.06,0,0,0-3.16.17l-3.82,4.81a2.76,2.76,0,0,0,.19,3.56l0,0h0l0,0a2.69,2.69,0,0,0,3.53.2l4.76-3.86A2.11,2.11,0,0,0,38,161.5"/><path class="cls-5" d="M15.7,159.73l-.88.88h0l-.87.89a2.11,2.11,0,0,0,.17,3.19l4.76,3.86a2.69,2.69,0,0,0,3.53-.2l0,0h0l0,0a2.76,2.76,0,0,0,.19-3.56l-3.82-4.81a2.06,2.06,0,0,0-3.16-.17"/><path class="cls-5" d="M36.22,184l.87-.88h0l.87-.89A2.11,2.11,0,0,0,37.8,179L33,175.17a2.69,2.69,0,0,0-3.53.2l0,0h0l0,0a2.76,2.76,0,0,0-.19,3.56l3.82,4.81a2.06,2.06,0,0,0,3.16.17"/><rect class="cls-6" x="115.5" y="261.36" width="52" height="52" rx="7"/><rect class="cls-4" x="115.5" y="30.36" width="52" height="52" rx="7"/><path class="cls-4" d="M54.88,285.35a7,7,0,0,0,9.9,0l26.87-26.87a7,7,0,0,0,0-9.9L64.78,221.71a7,7,0,0,0-9.9,0L28,248.58a7,7,0,0,0,0,9.9Z"/><path class="cls-6" d="M218.22,122a7,7,0,0,0,9.9,0L255,95.14a7,7,0,0,0,0-9.9L228.12,58.37a7,7,0,0,0-9.9,0L191.35,85.24a7,7,0,0,0,0,9.9Z"/><path class="cls-5" d="M255,258.48a7,7,0,0,0,0-9.9l-26.87-26.87a7,7,0,0,0-9.9,0l-26.87,26.87a7,7,0,0,0,0,9.9l26.87,26.87a7,7,0,0,0,9.9,0Z"/><path class="cls-6" d="M91.65,95.14a7,7,0,0,0,0-9.9L64.78,58.37a7,7,0,0,0-9.9,0L28,85.24a7,7,0,0,0,0,9.9L54.88,122a7,7,0,0,0,9.9,0Z"/><path class="cls-7" d="M210.57,88.78a12.31,12.31,0,0,0,14.5,14.5"/><path class="cls-8" d="M220,76.26a2.38,2.38,0,1,0,0-3.36,2.37,2.37,0,0,0,0,3.36"/><path class="cls-8" d="M237.33,93.61a2.37,2.37,0,1,0,0-3.36,2.36,2.36,0,0,0,0,3.36"/><path class="cls-7" d="M73.22,88.85a12.3,12.3,0,0,1-14.49,14.5"/><path class="cls-8" d="M63.82,76.33a2.38,2.38,0,1,1,0-3.36,2.37,2.37,0,0,1,0,3.36"/><path class="cls-8" d="M46.47,93.69a2.38,2.38,0,1,1,0-3.36,2.39,2.39,0,0,1,0,3.36"/><g class="cls-9"><g class="cls-10"><path class="cls-11" d="M208.45,252.28v1.25h0v1.25a2.09,2.09,0,0,0,2.36,2.14l6.07-.68a2.71,2.71,0,0,0,2.35-2.65v-.06h0v-.06a2.71,2.71,0,0,0-2.35-2.65l-6.07-.67a2.08,2.08,0,0,0-2.36,2.13"/><path class="cls-11" d="M240,254.78v-1.25h0v-1.25a2.09,2.09,0,0,0-2.36-2.14l-6.06.68a2.71,2.71,0,0,0-2.36,2.65v.06h0v.06a2.71,2.71,0,0,0,2.36,2.65l6.06.68a2.09,2.09,0,0,0,2.36-2.14"/><path class="cls-11" d="M225.44,237.63H223a2.09,2.09,0,0,0-2.11,2.38l.67,6.12a2.71,2.71,0,0,0,2.63,2.38h.11a2.72,2.72,0,0,0,2.63-2.38l.66-6.12a2.08,2.08,0,0,0-2.11-2.38"/><path class="cls-11" d="M223,269.44h2.48a2.09,2.09,0,0,0,2.11-2.38l-.66-6.13a2.72,2.72,0,0,0-2.63-2.38h-.11a2.71,2.71,0,0,0-2.63,2.38l-.67,6.13a2.09,2.09,0,0,0,2.11,2.38"/><path class="cls-11" d="M212.19,263.89l.88.89h0l.87.88a2.06,2.06,0,0,0,3.16-.17l3.82-4.81a2.76,2.76,0,0,0-.19-3.56l0,0h0l0,0a2.69,2.69,0,0,0-3.53-.2l-4.76,3.86a2.11,2.11,0,0,0-.17,3.19"/><path class="cls-11" d="M236.21,243.17l-.87-.89h0l-.88-.88a2.06,2.06,0,0,0-3.16.17l-3.82,4.81a2.75,2.75,0,0,0,.2,3.56l0,0h0l0,0a2.69,2.69,0,0,0,3.53.2l4.76-3.86a2.11,2.11,0,0,0,.17-3.19"/><path class="cls-11" d="M213.94,241.4l-.87.88h0l-.88.89a2.11,2.11,0,0,0,.17,3.19l4.76,3.86a2.69,2.69,0,0,0,3.53-.2l0,0h0l0,0a2.76,2.76,0,0,0,.19-3.56l-3.82-4.81a2.06,2.06,0,0,0-3.16-.17"/><path class="cls-11" d="M234.46,265.66l.88-.88h0l.87-.89a2.11,2.11,0,0,0-.17-3.19l-4.76-3.86a2.69,2.69,0,0,0-3.53.2l0,0h0l0,0a2.75,2.75,0,0,0-.2,3.56l3.82,4.81a2.06,2.06,0,0,0,3.16.17"/></g></g><path class="cls-7" d="M151.56,280.1a12.3,12.3,0,0,0-20.5,0"/><path class="cls-8" d="M153.77,295.6a2.38,2.38,0,1,0,2.38,2.38,2.37,2.37,0,0,0-2.38-2.38"/><path class="cls-8" d="M129.23,295.6A2.38,2.38,0,1,0,131.6,298a2.38,2.38,0,0,0-2.37-2.38"/><path class="cls-12" d="M305,250.51c-8.3-8-8-13.68-30.9-22.86"/><path class="cls-13" d="M267.8,225.16c-23.69-9.49-29.22-14.58-57.14-20.69"/><path class="cls-14" d="M204.21,203c-23.57-6.65-25.06-22.46-25.06-28.92"/><path class="cls-15" d="M178.92,167.32a37.7,37.7,0,0,0-35.14-33.08"/><path class="cls-15" d="M137,134.44a37.7,37.7,0,0,0-33.08,35.14"/><path class="cls-15" d="M104.08,176.4a37.7,37.7,0,0,0,35.14,33.08"/><path class="cls-16" d="M146,209.05c14.89-3.05,38.1-20.42-2.73-55.27"/><path class="cls-17" d="M137.23,150.69c-9.85-3.42-33-12.12-34.47-35.4"/><path class="cls-18" d="M102.74,108.64c.58-27.53,6-46.22-14.66-67.76"/><path class="cls-19" d="M86.55,39.33h0M102.69,113h0m38.81,39.33h0m0,57.22h0m-37.69-37.69h0m37.69-37.69h0m37.69,37.69h0M208.45,204h0M272,226.81h0m36.5,26.72h0"/><path class="cls-5" d="M83.59,34.52l0,0c9.27,4.59,10.49-16.47-3.27-7.93,2.68-2.49,4-4.55,4.46-6.33a9,9,0,0,0-3.93-9.9c-2.7-1.65-6.16-1.71-8.55.77-1.74,1.81-2.74,5.22.69,13.2a1.66,1.66,0,0,0-1.76.44,1.41,1.41,0,0,0,.08,2c-9-1.92-12.45-.44-14.08,1.46-2.23,2.6-1.62,5.79.55,8a10.44,10.44,0,0,0,11.06,2,15.23,15.23,0,0,0,6-5.14c-5,7,2.32,13.18,7.38,8.29,1.38-1.34,2.6-4.47,1-6.6a1.5,1.5,0,0,0,.43-.33Z"/><path class="cls-20" d="M83.63,34.55h0c9.3,4.6,10.53-16.51-3.28-8,2.69-2.49,4-4.57,4.47-6.35a9,9,0,0,0-3.94-9.93c-2.71-1.65-6.18-1.71-8.58.78-1.74,1.81-2.75,5.23.69,13.23a1.66,1.66,0,0,0-1.76.44,1.43,1.43,0,0,0,.07,2c-9-1.93-12.49-.44-14.12,1.46-2.24,2.62-1.63,5.82.55,8.06a10.46,10.46,0,0,0,11.1,2.05,15.28,15.28,0,0,0,6-5.15c-5,7.06,2.32,13.22,7.4,8.31,1.39-1.34,2.62-4.48,1-6.61a1.7,1.7,0,0,0,.42-.33Z"/><path class="cls-21" d="M71.53,25.06c-6.76-5.49-9.12-8.48-21.14-7.44m21.46,7.5c-5.51-5.7-6.35-13.51-7.14-20.94"/><path class="cls-3" d="M62.68,2.66a2.61,2.61,0,0,0,3,2.06,2.59,2.59,0,0,0,2.52-2.64A2.6,2.6,0,0,0,65.2,0a2.59,2.59,0,0,0-2.52,2.64"/><path class="cls-3" d="M46,18.7a2.82,2.82,0,0,0,5.54-.58A2.82,2.82,0,0,0,46,18.7"/><path class="cls-8" d="M60.47,32.66A2.82,2.82,0,0,0,66,32.09a2.82,2.82,0,0,0-5.54.57"/><path class="cls-20" d="M60.4,32.67a2.68,2.68,0,0,0,3.09,2.11,2.65,2.65,0,0,0,2.58-2.7,2.89,2.89,0,0,0-5.67.59Z"/><path class="cls-8" d="M74.78,16a2.82,2.82,0,0,0,5.54-.58,2.82,2.82,0,0,0-5.54.58"/><path class="cls-20" d="M74.72,16a2.88,2.88,0,0,0,5.66-.59,2.88,2.88,0,0,0-5.66.59Z"/><path class="cls-8" d="M82.22,29.3a2.14,2.14,0,0,0,4.2-.44,2.14,2.14,0,0,0-4.2.44"/><path class="cls-20" d="M82.15,29.31a2.21,2.21,0,0,0,4.34-.45,2.21,2.21,0,0,0-4.34.45Z"/><path class="cls-8" d="M76.32,38.3a2.14,2.14,0,1,0,1.92-2,2,2,0,0,0-1.92,2"/><path class="cls-20" d="M76.26,38.3a2.21,2.21,0,1,0,2-2.06A2,2,0,0,0,76.26,38.3Z"/><path class="cls-8" d="M149.14,68.14h-5.83a3.2,3.2,0,1,1,0-6.39h1.6a1.6,1.6,0,0,0,1.6-1.6v-.86a2,2,0,0,0-1.57-1.91l-3.26-.65a9.73,9.73,0,0,0-3.14,0L131,58.24a2,2,0,0,0-1.57,1.91V65a10.66,10.66,0,0,0,20.35,4.44c.19-.4.38-1.25-.66-1.25"/><path class="cls-8" d="M140.11,53.41a1.27,1.27,0,0,0,1.21-.87c.05-.13.92-12.29.92-13a2.13,2.13,0,0,0-4.26,0c0,.7.88,12.86.92,13a1.29,1.29,0,0,0,1.21.87"/><path class="cls-8" d="M130.44,54.6c-.05-.11-4.55-6.49-5-7a1.85,1.85,0,1,0-2.79,2.42c.39.45,6,5.84,6.15,5.9a1.11,1.11,0,0,0,1.59-1.37"/><path class="cls-8" d="M159.58,54.19a2.67,2.67,0,0,0-3.77,0c-.61.61-6.27,7.82-6.34,8a1.6,1.6,0,0,0,.3,1.84,1.62,1.62,0,0,0,1.84.3c.15-.07,7.36-5.73,8-6.34a2.67,2.67,0,0,0,0-3.77"/><path class="cls-8" d="M133.47,54a1.28,1.28,0,0,0,2.29-.79c0-.14-2.79-10.92-3-11.57a2.13,2.13,0,1,0-4,1.39c.23.65,4.68,10.86,4.76,11"/><path class="cls-8" d="M145.32,54.4a1.29,1.29,0,0,0,1.43-.42c.08-.11,4.53-10.32,4.76-11a2.13,2.13,0,0,0-4-1.39c-.23.66-3,11.44-3,11.58a1.28,1.28,0,0,0,.86,1.21"/><path class="cls-8" d="M245.77,180.07v-5.84a3.2,3.2,0,0,1,6.4,0v1.6a1.6,1.6,0,0,0,1.6,1.6h.86a2,2,0,0,0,1.91-1.57l.64-3.26a9.14,9.14,0,0,0,0-3.13l-1.5-7.53a2,2,0,0,0-1.91-1.56H249a10.66,10.66,0,0,0-4.44,20.35c.4.18,1.24.38,1.24-.66"/><path class="cls-8" d="M260.51,171a1.29,1.29,0,0,0,.86,1.21c.13,0,12.3.92,13,.92a2.14,2.14,0,0,0,0-4.27c-.7,0-12.86.88-13,.92a1.29,1.29,0,0,0-.87,1.22"/><path class="cls-8" d="M259.32,161.36c.11,0,6.49-4.55,6.95-4.94a1.85,1.85,0,1,0-2.42-2.8c-.46.4-5.84,6-5.9,6.15a1.12,1.12,0,0,0,.12,1.29,1.1,1.1,0,0,0,1.25.3"/><path class="cls-8" d="M259.73,190.51a2.67,2.67,0,0,0,0-3.77c-.62-.62-7.82-6.27-8-6.35a1.61,1.61,0,0,0-1.84.31,1.59,1.59,0,0,0-.31,1.83c.08.16,5.74,7.36,6.35,8a2.67,2.67,0,0,0,3.77,0"/><path class="cls-8" d="M259.94,164.4a1.25,1.25,0,0,0-.42,1.42,1.29,1.29,0,0,0,1.21.87c.13,0,10.91-2.8,11.57-3a2.13,2.13,0,1,0-1.39-4c-.66.22-10.86,4.67-11,4.76"/><path class="cls-8" d="M259.52,176.25a1.27,1.27,0,0,0,.42,1.43c.11.08,10.31,4.53,11,4.75a2.13,2.13,0,0,0,1.39-4c-.66-.22-11.44-3-11.57-3a1.28,1.28,0,0,0-1.21.86"/><path class="cls-8" d="M62.31,239.43l4.13,4.12a3.2,3.2,0,0,1-4.52,4.53L60.79,247a1.59,1.59,0,0,0-2.26,0l-.61.6a2.05,2.05,0,0,0-.25,2.46l1.85,2.77A9.5,9.5,0,0,0,61.74,255l6.38,4.26a2,2,0,0,0,2.47-.24l.79-.8,1.47-1.47L74,255.61a10.66,10.66,0,0,0-11.25-17.53c-.42.16-1.15.61-.42,1.35"/><path class="cls-8" d="M58.28,256.24a1.29,1.29,0,0,0-1.47-.25c-.12.06-9.34,8.05-9.84,8.54a2.13,2.13,0,0,0,3,3c.49-.49,8.47-9.71,8.53-9.83a1.27,1.27,0,0,0-.24-1.47"/><path class="cls-8" d="M66,262.24c0,.11-1.37,7.8-1.41,8.4a1.84,1.84,0,1,0,3.68.27c0-.6-.15-8.4-.18-8.52a1.08,1.08,0,0,0-1-.82,1.1,1.1,0,0,0-1.1.67"/><path class="cls-8" d="M45.06,241.92a2.67,2.67,0,0,0,2.67,2.66c.87,0,10-1.09,10.12-1.15a1.6,1.6,0,0,0,1.09-1.51,1.63,1.63,0,0,0-1.08-1.52c-.17-.05-9.26-1.15-10.13-1.15a2.67,2.67,0,0,0-2.67,2.67"/><path class="cls-8" d="M63.38,260.53a1.28,1.28,0,0,0-2.18-1.06c-.09.09-5.74,9.69-6.05,10.32A2.13,2.13,0,0,0,59,271.65c.3-.62,4.37-11,4.39-11.12"/><path class="cls-8" d="M55.3,251.85a1.27,1.27,0,0,0-1.31-.71c-.14,0-10.5,4.09-11.13,4.39a2.13,2.13,0,1,0,1.87,3.83c.63-.3,10.22-6,10.32-6.05a1.27,1.27,0,0,0,.25-1.46"/></g></g></svg>